<svg viewBox="0 0 120 132" xmlns="http://www.w3.org/2000/svg">
  <g fill="#1A3A1B">
    <circle cx="44" cy="34" r="15"/><circle cx="76" cy="34" r="15"/><circle cx="33" cy="50" r="14"/><circle cx="87" cy="50" r="14"/><circle cx="60" cy="30" r="16"/><circle cx="60" cy="58" r="15"/><circle cx="48" cy="54" r="13"/><circle cx="72" cy="54" r="13"/>
  </g>
  <g fill="#2C5F2E">
    <circle cx="60" cy="26" r="16"/><circle cx="44" cy="30" r="15"/><circle cx="76" cy="30" r="15"/><circle cx="33" cy="46" r="15"/><circle cx="87" cy="46" r="15"/><circle cx="60" cy="44" r="18"/><circle cx="42" cy="52" r="14"/><circle cx="78" cy="52" r="14"/><circle cx="60" cy="54" r="15"/>
  </g>
  <g fill="#4F8A4E">
    <circle cx="54" cy="22" r="6"/><circle cx="38" cy="27" r="6"/><circle cx="70" cy="25" r="6"/><circle cx="28" cy="43" r="5"/><circle cx="55" cy="40" r="6"/><circle cx="82" cy="43" r="5"/>
  </g>
  <g fill="none" stroke="#1A3A1B" stroke-width="1.1" stroke-linecap="round" opacity="0.5">
    <path d="M60 36 L60 54"/><path d="M45 34 L45 50"/><path d="M75 34 L75 50"/><path d="M33 44 L34 58"/><path d="M87 44 L86 58"/>
  </g>
  <path d="M37 66 Q36 59 44 58 L76 58 Q84 59 83 66 L85 98 Q85 120 60 120 Q35 120 35 98 Z" fill="#FAF8F5" stroke="#DDD5C8" stroke-width="1.3"/>
  <path d="M38 90 L23 83" stroke="#DDD5C8" stroke-width="11" stroke-linecap="round"/><path d="M82 90 L97 83" stroke="#DDD5C8" stroke-width="11" stroke-linecap="round"/>
  <path d="M38 90 L23 83" stroke="#FAF8F5" stroke-width="8.5" stroke-linecap="round"/><path d="M82 90 L97 83" stroke="#FAF8F5" stroke-width="8.5" stroke-linecap="round"/>
  <circle cx="19" cy="81" r="6" fill="#1A3A1B"/><circle cx="101" cy="81" r="6" fill="#1A3A1B"/>
  <circle cx="19.3" cy="80.7" r="4.6" fill="#2C5F2E"/><circle cx="100.7" cy="80.7" r="4.6" fill="#2C5F2E"/>
  <path d="M47 76 Q51 73.5 55 75.5" stroke="#1A1A1A" stroke-width="1.6" fill="none" stroke-linecap="round"/><path d="M65 75.5 Q69 73.5 73 76" stroke="#1A1A1A" stroke-width="1.6" fill="none" stroke-linecap="round"/>
  <ellipse cx="52" cy="86" rx="4.6" ry="5.3" fill="#1A1A1A"/><ellipse cx="68" cy="86" rx="4.6" ry="5.3" fill="#1A1A1A"/>
  <circle cx="53.8" cy="84" r="1.7" fill="#FFFFFF"/><circle cx="69.8" cy="84" r="1.7" fill="#FFFFFF"/>
  <ellipse cx="45" cy="91" rx="4.3" ry="2.9" fill="#E0A39E"/><ellipse cx="75" cy="91" rx="4.3" ry="2.9" fill="#E0A39E"/>
  <path d="M55 92.5 Q60 97.5 65 92.5" stroke="#1A1A1A" stroke-width="1.9" fill="none" stroke-linecap="round"/>
</svg>
